<svg xmlns="http://www.w3.org/2000/svg" viewBox="0 0 200 200" fill="none">
  <!-- Main body (round plant pot shape) -->
  <ellipse cx="100" cy="130" rx="60" ry="50" fill="#8FBC8F"/>
  <ellipse cx="100" cy="125" rx="55" ry="45" fill="#9ebfb0"/>
  
  <!-- Face area -->
  <ellipse cx="100" cy="115" rx="45" ry="40" fill="#c5d8cf"/>
  
  <!-- Eyes -->
  <ellipse cx="80" cy="110" rx="8" ry="10" fill="#365a4c"/>
  <ellipse cx="120" cy="110" rx="8" ry="10" fill="#365a4c"/>
  <circle cx="82" cy="107" r="3" fill="white"/>
  <circle cx="122" cy="107" r="3" fill="white"/>
  
  <!-- Blush -->
  <ellipse cx="65" cy="125" rx="10" ry="6" fill="#F08080" opacity="0.5"/>
  <ellipse cx="135" cy="125" rx="10" ry="6" fill="#F08080" opacity="0.5"/>
  
  <!-- Smile -->
  <path d="M 85 130 Q 100 145, 115 130" stroke="#365a4c" stroke-width="3" fill="none" stroke-linecap="round"/>
  
  <!-- Leaf/sprout on top -->
  <ellipse cx="100" cy="60" rx="20" ry="35" fill="#558b75" transform="rotate(-15 100 60)"/>
  <ellipse cx="105" cy="55" rx="18" ry="30" fill="#76a18f" transform="rotate(-10 105 55)"/>
  <path d="M 100 85 Q 100 50, 95 30" stroke="#365a4c" stroke-width="2" fill="none"/>
  
  <!-- Small decorative leaf -->
  <ellipse cx="130" cy="75" rx="12" ry="20" fill="#76a18f" transform="rotate(30 130 75)"/>
  
  <!-- Pot base detail -->
  <ellipse cx="100" cy="165" rx="45" ry="15" fill="#42705e"/>
  <rect x="55" y="150" width="90" height="15" fill="#42705e"/>
</svg>
